# xmcd CD database file
#
# Track frame offsets:
#	150
#	14577
#	36030
#	54555
#	70982
#	91560
#	110987
#	130852
#	145072
#	162370
#	183632
#	199507
#	220125
#
# Disc length: 3162 seconds
#
# Revision: 0
# Processed by: cddbd v1.5PL3 Copyright (c) Steve Scherf et al.
# Submitted via: CDex 1.51
#
DISCID=ba0c580d
DTITLE=Louis Van Dijk and Pim Jacobs - Play Cole Porter
DYEAR=1900
DGENRE=Easy Listening
TTITLE0=You Be So Nice To Come Home To
TTITLE1=Night And Day
TTITLE2=Every Time I Say Goodbye
TTITLE3=Get Out Of Town
TTITLE4=I Get A Kick Out Of You
TTITLE5=Just One Of Those Things
TTITLE6=I've Got You Under My Skin
TTITLE7=What Is This Thing Called Love
TTITLE8=Let's Do It
TTITLE9=Love For Sale
TTITLE10=I Love You
TTITLE11=Easy To Love
TTITLE12=If I Could Write A Book
EXTD=
EXTT0=
EXTT1=
EXTT2=
EXTT3=
EXTT4=
EXTT5=
EXTT6=
EXTT7=
EXTT8=
EXTT9=
EXTT10=
EXTT11=
EXTT12=
PLAYORDER=
